<svg xmlns="http://www.w3.org/2000/svg" width="64" height="64" viewBox="0 0 640 640" shape-rendering="geometricPrecision" text-rendering="geometricPrecision" image-rendering="optimizeQuality" fill-rule="evenodd" clip-rule="evenodd"><path d="M63.367 47.174h173.695V32.22c0-.496.012-.969.07-1.453.39-8.291 3.97-15.815 9.462-21.284l-.036-.035c5.752-5.752 13.736-9.32 22.524-9.402l.118.012V0h103.808c.555 0 1.075.047 1.606.118a32.268 32.268 0 0 1 21.166 9.425 32.204 32.204 0 0 1 9.39 22.477l-.012.106h.071v15.048h171.487c.72 0 1.393.07 2.09.177 6.154.555 11.74 3.26 15.804 7.347l.023.035.024-.035c4.429 4.464 7.216 10.665 7.3 17.54l-.013.165h.071v56.563c0 7.666-6.224 13.878-13.89 13.878H51.874c-7.665 0-13.89-6.212-13.89-13.878V72.497c0-.555.024-1.098.095-1.642v-.106a25.47 25.47 0 0 1 7.405-16.134l-.035-.012c4.488-4.488 10.713-7.276 17.587-7.37l.165.012v-.071h.165zm379.776 208.538h-30.969V547.86h30.969V255.71zm-100.678 0h-30.98V547.86h30.98V255.71zm-100.678 0h-30.969V547.86h30.969V255.71zM94.43 164.423h455.132l1.453.095.661.035.697.06h.047l.85.117c7.1.85 13.737 4.11 18.603 8.894 5.422 5.339 8.882 12.58 8.882 20.646 0 .508-.047 1.004-.094 1.488l-.012.355-.071.803-38.504 413.202-.036.224h.036l-.083.72-.26 1.477-.012.024-.012.094c-.283 1.725-.626 3.366-1.086 4.831l-.036.118-.011.024-.048.094-.118.32-.023.105c-.615 1.843-1.37 3.638-2.244 5.256-5.256 9.792-15 16.595-27.107 16.595h-378.62l-1.287-.07v.011l-.059-.012-.165-.023c-2.398-.119-4.63-.473-6.709-1.052-2.161-.602-4.263-1.488-6.236-2.574l-.047-.012-.012.012c-9.295-5.091-15.496-15.012-16.512-26.162L63.403 196.822l-.059-.65-.059-1.287-.023-.603h-.024c0-8.09 3.46-15.342 8.894-20.68 5.079-4.973 12.083-8.328 19.559-8.99l.638-.023v-.035l1.559-.071.543.012v-.071zm455.132 27.78H94.43v-.035l-.602.023c-.85.119-1.678.556-2.28 1.158-.33.33-.543.685-.543.933h-.036l.036.614 37.925 412.73h-.011l.011.058c.166 1.96 1.052 3.603 2.327 4.3l-.012.023.437.165.331.06h379.021c1.074 0 2.078-.815 2.693-1.961l.437-1.028.283-1.122.07-.72h.025L553 194.849l-.012-.579c0-.236-.213-.579-.532-.898a4.382 4.382 0 0 0-2.35-1.18l-.543.011zm.579-.012h-.083m2.94 2.67v-.024m27.592 1.984l-.012.095M250.941 74.942H65.754v40.134h508.494V74.942H391.341c-7.666 0-13.879-6.213-13.879-13.878V32.126h.036c-.036-1.145-.555-2.256-1.347-3.047-.708-.732-1.689-1.193-2.716-1.31H269.2v-.036c-1.11.035-2.196.543-3 1.346l-.023-.024-.036.024c-.685.697-1.204 1.63-1.346 2.61l.035.532v28.843c0 7.665-6.224 13.878-13.89 13.878z" fill-rule="nonzero"/></svg>